HIERARCHY
ROOT Hips
{
    OFFSET 0.000000 0.000000 0.000000
    CHANNELS 6 Xposition Yposition Zposition Zrotation Xrotation Yrotation
        JOINT Chest
        {
            OFFSET -0.000000 26.978363 -0.000000
            CHANNELS 3 Zrotation Xrotation Yrotation
            JOINT Neck
            {
                OFFSET -0.000000 19.720629 0.000000
                CHANNELS 3 Zrotation Xrotation Yrotation
                JOINT Head
                {
                    OFFSET -0.000000 9.655557 0.000000
                    CHANNELS 3 Zrotation Xrotation Yrotation
                    End Site
                    {
                        OFFSET -0.000000 14.922232 0.000000
                    }
                }
            }
            JOINT LeftCollar
            {
                OFFSET -0.000000 19.720629 0.000000
                CHANNELS 3 Zrotation Xrotation Yrotation
                JOINT LeftShoulder
                {
                    OFFSET 17.555553 -0.000000 0.000000
                    CHANNELS 3 Zrotation Xrotation Yrotation
                    JOINT LeftElbow
                    {
                        OFFSET 22.589397 0.000000 0.000000
                        CHANNELS 3 Zrotation Xrotation Yrotation
                        JOINT LeftWrist
                        {
                            OFFSET 20.401022 0.000000 0.000000
                            CHANNELS 3 Zrotation Xrotation Yrotation
                            End Site
                            {
                                OFFSET 0.000000 -13.166666 0.000000
                            }
                        }
                    }
                }
            }
            JOINT RightCollar
            {
                OFFSET -0.000000 19.720629 0.000000
                CHANNELS 3 Zrotation Xrotation Yrotation
                JOINT RightShoulder
                {
                    OFFSET -17.555553 0.000000 0.000000
                    CHANNELS 3 Zrotation Xrotation Yrotation
                    JOINT RightElbow
                    {
                        OFFSET -22.589397 0.000000 0.000000
                        CHANNELS 3 Zrotation Xrotation Yrotation
                        JOINT RightWrist
                        {
                            OFFSET -20.401022 0.000000 0.000000
                            CHANNELS 3 Zrotation Xrotation Yrotation
                            End Site
                            {
                                OFFSET -0.000000 -13.166666 0.000000
                            }
                        }
                    }
                }
            }
        }
    JOINT LeftHip
    {
        OFFSET 10.533332 0.000000 0.000000
        CHANNELS 3 Zrotation Xrotation Yrotation
        JOINT LeftKnee
        {
            OFFSET -0.000000 -40.048210 0.000000
            CHANNELS 3 Zrotation Xrotation Yrotation
            JOINT LeftAnkle
            {
                OFFSET -0.000000 -36.098888 0.000000
                CHANNELS 3 Zrotation Xrotation Yrotation
                End Site
                {
                    OFFSET -0.000000 -4.388888 14.922232
                }
            }
        }
    }
    JOINT RightHip
    {
        OFFSET -10.533332 0.000000 0.000000
        CHANNELS 3 Zrotation Xrotation Yrotation
        JOINT RightKnee
        {
            OFFSET -0.000000 -40.048210 0.000000
            CHANNELS 3 Zrotation Xrotation Yrotation
            JOINT RightAnkle
            {
                OFFSET -0.000000 -36.098888 0.000000
                CHANNELS 3 Zrotation Xrotation Yrotation
                End Site
                {
                    OFFSET -0.000000 -4.388888 14.922232
                }
            }
        }
    }
}
MOTION
Frames:    16
Frame Time:    0.010000
1.309637    85.748306    3.832626    -1.533551    -3.468216    -47.764622    -8.913794    3.305063    11.207522    8.674601    0.488613    11.932533    0.026616    -6.718457    11.977516    -23.130314    0.921423    -3.941895    -8.563745    43.886353    -40.678154    27.233849    -14.626667    -52.846855    113.900726    23.819233    95.289780    13.476391    -0.302316    -2.509441    60.107178    27.396172    17.954901    16.114586    14.332213    82.058022    -86.132782    4.414557    17.972267    2.037129    -23.179115    17.915232    14.311001    38.181049    -11.662159    -1.906229    -0.569445    -1.670533    -4.531312    1.340007    -15.506545    -3.757122    19.924414    -12.286003    6.358487    -10.687440    9.347393    
1.585047    86.425827    3.785938    -1.538288    -3.347350    -49.046413    -8.981370    2.797532    11.583160    8.878369    0.297341    12.500487    -0.049772    -6.229861    12.527644    -23.321665    0.823446    -3.472279    -6.651915    45.369526    -42.607849    27.639563    -13.855396    -50.005951    111.131813    25.036884    98.293808    13.274602    -0.321280    -2.620966    60.558693    27.125462    17.229181    16.295734    14.350200    82.024986    -84.109634    7.211607    18.910677    1.385732    -22.207457    16.596823    14.174539    39.419479    -10.556695    -1.643091    -0.191717    -3.446196    -4.695138    1.496708    -14.348314    -3.216776    18.269297    -12.618491    6.035301    -8.405231    9.546161    
1.871993    87.089706    3.748141    -1.556826    -3.165195    -50.464939    -8.949453    2.263882    12.008663    9.097126    0.024495    13.099195    -0.172057    -5.684860    13.099906    -23.504942    0.732884    -3.068754    -5.013351    46.733738    -44.256344    27.799267    -13.032688    -47.368004    108.026970    25.814283    101.308624    13.100415    -0.341152    -2.726916    60.751278    26.908920    16.779978    16.343821    14.279432    82.041016    -81.917976    10.087657    19.520885    0.808163    -21.209032    15.292149    13.802955    40.556377    -9.212585    -1.505888    0.347607    -5.119702    -4.895996    1.432020    -13.275296    -2.713727    16.893126    -12.842609    5.807447    -6.051607    9.843150    
2.164255    87.723900    3.716233    -1.603902    -2.928202    -52.020779    -8.796905    1.742608    12.455715    9.318653    -0.332670    13.739703    -0.323220    -5.090567    13.706776    -23.665367    0.652429    -2.732672    -3.715506    47.974300    -45.570942    27.733736    -12.190759    -44.971645    104.763031    26.144657    104.286049    12.962637    -0.294878    -2.811168    60.648457    26.685144    16.713013    16.298519    14.213137    81.971893    -79.626007    12.916484    19.753220    0.329554    -20.164467    14.079898    13.225733    41.521301    -7.716436    -1.455628    1.059390    -6.571143    -5.115730    1.159432    -12.335714    -2.249021    15.820084    -12.905593    5.706007    -3.688915    10.208769    
2.455555    88.312943    3.687144    -1.691746    -2.641849    -53.704720    -8.511099    1.267558    12.888388    9.529048    -0.761122    14.433580    -0.480274    -4.467120    14.360865    -23.787828    0.581276    -2.448967    -2.755425    49.107796    -46.561409    27.486290    -11.370204    -42.829094    101.541931    26.074093    107.174583    12.858719    -0.329349    -2.854595    60.322487    26.550104    16.947495    16.104546    13.881123    81.946114    -77.036255    15.695286    19.741154    -0.035118    -19.054270    13.023558    12.497169    42.246204    -6.168020    -1.482504    1.919907    -7.699030    -5.330457    0.705248    -11.562852    -1.826342    15.056520    -12.763184    5.750567    -1.395072    10.576941    
2.740787    88.842308    3.657509    -1.826853    -2.310000    -55.497704    -8.089729    0.865609    13.267155    9.717057    -1.238195    15.189435    -0.620421    -3.842641    15.074370    -23.857298    0.521478    -2.185009    -2.050274    50.164627    -47.315281    27.110558    -10.601373    -40.929352    98.551605    25.711903    109.953079    12.795572    -0.326210    -2.836915    59.756050    26.390879    17.569607    15.919295    13.633128    81.622940    -74.471832    18.189983    19.312010    -0.282921    -17.863195    12.158924    11.683182    42.672928    -4.655058    -1.604207    2.865742    -8.442008    -5.514707    0.102490    -10.973852    -1.454382    14.594460    -12.390131    5.938158    0.738624    10.848299    
3.016768    89.298615    3.623807    -2.009237    -1.935823    -57.371769    -7.541096    0.556946    13.554078    9.875554    -1.741147    16.011723    -0.724260    -3.243702    15.853378    -23.862118    0.469277    -1.901442    -1.448151    51.186970    -47.991646    26.676624    -9.906999    -39.229416    95.918320    25.200243    112.647835    12.767712    -0.324852    -2.742065    59.008221    26.259586    18.553881    15.671648    13.261767    81.109581    -71.717987    20.455053    18.655081    -0.422446    -16.582535    11.489090    10.847304    42.759071    -3.235507    -1.850063    3.794901    -8.789536    -5.645319    -0.612135    -10.569926    -1.147190    14.413018    -11.794146    6.242968    2.612530    10.902380    
3.282090    89.669922    3.582594    -2.234820    -1.523135    -59.292057    -6.883293    0.357543    13.718190    10.005510    -2.254287    16.900265    -0.778854    -2.689335    16.698933    -23.793901    0.393164    -1.560874    -0.766421    52.233894    -48.788887    26.271740    -9.308891    -37.654320    93.687759    24.676104    115.316071    12.769248    -0.290623    -2.558476    58.114681    26.145401    19.896059    15.411397    12.848457    80.303185    -68.915581    22.388979    17.723236    -0.469788    -15.209284    10.990024    10.041271    42.479408    -1.935372    -2.237583    4.580969    -8.782641    -5.703954    -1.397503    -10.337359    -0.922382    14.476995    -11.030855    6.633843    4.128746    10.617636    
3.536746    89.946152    3.530973    -2.497154    -1.077842    -61.218922    -6.142220    0.278819    13.738668    10.109846    -2.769398    17.847368    -0.773796    -2.191716    17.603544    -23.649357    0.310598    -1.146007    0.103371    53.300793    -49.823879    25.869717    -8.774376    -36.211235    91.908287    24.284611    117.968590    12.790197    -0.263507    -2.284978    57.128922    26.116474    21.532156    15.061298    12.275925    79.289413    -65.954323    24.044067    16.610817    -0.445151    -13.746068    10.619839    9.300860    41.827251    -0.754507    -2.757458    5.091139    -8.504498    -5.680943    -2.207428    -10.250924    -0.796127    14.734414    -10.212550    7.100009    5.205650    9.894656    
3.781868    90.119644    3.467419    -2.788646    -0.609626    -63.109421    -5.350814    0.326216    13.606011    10.195766    -3.286524    18.838671    -0.703018    -1.752567    18.552008    -23.434013    0.218717    -0.663671    1.237438    54.371712    -51.185333    25.509357    -8.299763    -34.853516    90.508392    24.090801    120.605766    12.824640    -0.220511    -1.931283    56.061802    26.191675    23.430494    14.629348    11.601589    78.040794    -62.928982    25.360374    15.278991    -0.371425    -12.201443    10.325900    8.645233    40.817829    0.327038    -3.371926    5.202207    -8.063019    -5.580439    -2.991088    -10.280347    -0.774772    15.116367    -9.496129    7.672726    5.790549    8.671671    
4.019644    90.185272    3.392262    -3.101215    -0.132199    -64.918839    -4.545662    0.496226    13.322778    10.274746    -3.810287    19.852777    -0.567962    -1.364035    19.521673    -23.165722    0.121945    -0.146856    2.609521    55.403255    -52.845852    25.168367    -7.868599    -33.583439    89.428146    24.148571    123.175583    12.868834    -0.177588    -1.520504    54.910362    26.427322    25.537996    14.044720    10.757763    76.653954    -59.770618    26.370951    13.776011    -0.272099    -10.592379    10.053218    8.079915    39.493839    1.333279    -4.023360    4.811319    -7.561735    -5.423336    -3.696552    -10.397684    -0.848371    15.541869    -9.050020    8.428777    5.862009    6.940132    
4.253064    90.140488    3.307362    -3.426622    0.338799    -66.604019    -3.761991    0.773823    12.904859    10.363760    -4.344859    20.863245    -0.382048    -1.011683    20.484756    -22.873056    0.025568    0.356256    4.123567    56.343204    -54.698509    24.821045    -7.463919    -32.410851    88.577995    24.465565    125.601967    12.922217    -0.134557    -1.087272    53.641048    26.854067    27.813784    13.277019    9.759266    75.174850    -56.510567    27.038105    12.094628    -0.166609    -8.948647    9.763639    7.607821    37.928711    2.261540    -4.650359    3.845911    -7.068536    -5.244507    -4.277251    -10.582773    -0.991510    15.926849    -9.014464    9.453641    5.425348    4.776843    
4.485720    89.985397    3.215368    -3.755960    0.788329    -68.127747    -3.028371    1.130042    12.380859    10.481684    -4.885399    21.840282    -0.172052    -0.682423    21.410091    -22.594284    -0.066510    0.794232    5.647887    57.152309    -56.592243    24.438114    -7.076705    -31.347599    87.874405    25.027262    127.806618    12.985962    -0.091298    -0.675014    52.200993    27.490068    30.227602    12.300692    8.614327    73.654198    -53.175320    27.332167    10.265755    -0.066526    -7.315779    9.454967    7.237501    36.224201    3.061646    -5.202227    2.277329    -6.598577    -5.086592    -4.699338    -10.826034    -1.170175    16.195372    -9.468160    10.760571    4.512454    2.382158    
4.721617    89.722931    3.119072    -4.078935    1.203141    -69.461990    -2.365283    1.520837    11.787148    10.643344    -5.408193    22.752823    0.028082    -0.373379    22.267836    -22.372009    -0.144375    1.118880    7.014499    57.803783    -58.333981    23.975042    -6.696124    -30.417101    87.263863    25.803814    129.706299    13.063354    -0.057711    -0.328620    50.536919    28.341011    32.746365    11.095366    7.335714    72.130363    -49.803085    27.223156    8.342756    0.024599    -5.753169    9.160954    6.977917    34.500965    3.650169    -5.644533    0.136748    -6.122391    -4.993509    -4.946759    -11.127698    -1.349940    16.290577    -10.408588    12.195896    3.201696    0.080840    
4.964664    89.359177    3.021069    -4.384591    1.571309    -70.590034    -1.785892    1.892218    11.161661    10.854065    -5.871052    23.573416    0.186740    -0.093137    23.033367    -22.244907    -0.204270    1.293304    8.054402    58.297493    -59.734638    23.405931    -6.318283    -29.626829    86.714134    26.746265    131.225708    13.156465    -0.018482    -0.085309    48.608788    29.365580    35.349644    9.704913    6.000943    70.579308    -46.526749    26.665272    6.401198    0.108343    -4.325897    8.935575    6.827738    32.883320    3.943302    -5.955235    -2.472595    -5.589408    -5.004879    -5.021701    -11.491985    -1.502101    16.182388    -11.751862    13.419362    1.647003    -1.761003    
5.218290    88.903816    2.923538    -4.661659    1.881405    -71.506256    -1.297969    2.187936    10.538461    11.110115    -6.221105    24.279749    0.277843    0.142095    23.690258    -22.243456    -0.232221    1.295790    8.614757    58.644520    -60.624020    22.685997    -5.948503    -28.993065    86.255302    27.816727    132.278305    13.262882    0.015732    0.031712    46.424969    30.518845    37.993240    8.157715    4.641159    69.000671    -43.424023    25.686554    4.558507    0.187063    -3.096103    8.831117    6.770083    31.483953    3.883876    -6.117155    -5.380187    -4.952816    -5.152809    -4.943028    -11.919401    -1.606036    15.871825    -13.352111    14.053464    0.065389    -2.886520    
